<?xml version="1.0" encoding="UTF-8"?>
<svg version="1.1" xmlns="http://www.w3.org/2000/svg" width="248" height="296">
<path d="M0 0 C81.84 0 163.68 0 248 0 C248 97.68 248 195.36 248 296 C166.16 296 84.32 296 0 296 C0 198.32 0 100.64 0 0 Z " fill="#D8D8D8" transform="translate(0,0)"/>
<path d="M0 0 C0.33 0 0.66 0 1 0 C1.19335938 0.95261719 1.38671875 1.90523437 1.5859375 2.88671875 C1.84632812 4.14097656 2.10671875 5.39523438 2.375 6.6875 C2.63023438 7.92886719 2.88546875 9.17023438 3.1484375 10.44921875 C4.48685723 16.03006065 5.83007323 19.05078769 10 23 C11.03621904 24.42644911 12.05678932 25.8643795 13.0625 27.3125 C20.45291587 36.9184581 31.3142579 41.30505645 43 43 C45.26225893 43.0919146 47.52680596 43.1347028 49.79092407 43.14044189 C50.44911931 43.14341302 51.10731456 43.14638414 51.78545511 43.1494453 C53.97758867 43.1580746 56.16966725 43.15963563 58.36181641 43.16113281 C59.93927119 43.16576515 61.51672486 43.17079037 63.09417725 43.17617798 C67.37135036 43.18926568 71.6485078 43.19574007 75.9256978 43.20018864 C78.60229609 43.20312581 81.27889015 43.20723186 83.9554863 43.21169281 C92.34255662 43.22535945 100.72961722 43.23502965 109.11669791 43.2388947 C118.77456596 43.24337068 128.43229216 43.26090072 138.0901171 43.2898953 C145.57062141 43.31156778 153.05108598 43.32160198 160.53162134 43.32293582 C164.99210027 43.32398005 169.45244571 43.3298059 173.91289139 43.34775543 C178.11380943 43.36433223 182.314495 43.36634543 186.51543427 43.35761642 C188.04878491 43.35685111 189.58214855 43.36112128 191.11546707 43.37107468 C208.69501268 43.47840693 221.90204106 39.96191148 235 28 C242.34909464 19.37455437 245.05384259 11.12315985 247 0 C247.33 0 247.66 0 248 0 C248 44.22 248 88.44 248 134 C166.16 134 84.32 134 0 134 C0 89.78 0 45.56 0 0 Z " fill="#F8F8F8" transform="translate(0,162)"/>
<path d="M0 0 C12.74227345 9.32681871 22.39629884 22.87350733 25.7109375 38.4765625 C26.73815225 51.25334579 27.17097632 64.64933107 21.7109375 76.4765625 C21.31003906 77.39824219 20.90914063 78.31992188 20.49609375 79.26953125 C12.80028984 95.08496595 -0.9502783 105.71374165 -17.2890625 111.4765625 C-22.82194787 113.35590361 -27.69811741 113.82976806 -33.4765625 113.7890625 C-34.31517822 113.78342285 -35.15379395 113.7777832 -36.01782227 113.77197266 C-51.90074669 113.4632102 -65.72764917 107.39241468 -77.2890625 96.4765625 C-88.66959332 84.62098229 -95.30093059 69.39440522 -95.6015625 52.9765625 C-95.11725255 33.18039344 -88.47605704 17.65667373 -74.14453125 3.8671875 C-52.78252648 -14.01728161 -23.15514301 -15.41041941 0 0 Z " fill="#D7D7D8" transform="translate(158.2890625,65.5234375)"/>
<path d="M0 0 C12.74227345 9.32681871 22.39629884 22.87350733 25.7109375 38.4765625 C26.73815225 51.25334579 27.17097632 64.64933107 21.7109375 76.4765625 C21.31003906 77.39824219 20.90914063 78.31992188 20.49609375 79.26953125 C12.80028984 95.08496595 -0.9502783 105.71374165 -17.2890625 111.4765625 C-22.82194787 113.35590361 -27.69811741 113.82976806 -33.4765625 113.7890625 C-34.31517822 113.78342285 -35.15379395 113.7777832 -36.01782227 113.77197266 C-51.90074669 113.4632102 -65.72764917 107.39241468 -77.2890625 96.4765625 C-88.66959332 84.62098229 -95.30093059 69.39440522 -95.6015625 52.9765625 C-95.11725255 33.18039344 -88.47605704 17.65667373 -74.14453125 3.8671875 C-52.78252648 -14.01728161 -23.15514301 -15.41041941 0 0 Z M-70.734375 18.546875 C-80.05385965 30.11427554 -83.5770345 42.79687683 -82.51220703 57.43408203 C-81.15718598 69.83682395 -74.70065274 81.09367041 -65.73046875 89.625 C-54.2577406 98.32591703 -41.50469571 101.80630235 -27.2890625 100.4765625 C-13.64935886 97.96793859 -2.35056751 90.7532592 5.7109375 79.4765625 C12.55180882 67.39493783 15.84375822 54.93465501 13.0234375 41.10546875 C9.03056422 26.98067952 1.40110673 15.9960136 -11.2890625 8.4765625 C-32.05449398 -1.57039378 -54.5426266 1.11556691 -70.734375 18.546875 Z " fill="#0C1B2A" transform="translate(158.2890625,65.5234375)"/>
<path d="M0 0 C26.4 0 52.8 0 80 0 C78.68 0.66 77.36 1.32 76 2 C67.91299345 7.10758308 64.22513342 17.33404269 60.19921875 25.62890625 C59 28 59 28 58 29 C54.35049265 29.2392497 50.7075983 29.39485133 47.05273438 29.51757812 C36.37666747 29.98405096 24.53179957 32.90011381 16.875 40.875 C16.25625 41.57625 15.6375 42.2775 15 43 C14.34 43 13.68 43 13 43 C12.72929687 43.57878906 12.45859375 44.15757813 12.1796875 44.75390625 C10.99779114 47.00420561 9.63640392 48.89749626 8.125 50.9375 C4.33291352 56.49550911 2.69539739 62.54751698 1 69 C0.67 69 0.34 69 0 69 C0 46.23 0 23.46 0 0 Z " fill="#F6F6F6" transform="translate(0,0)"/>
<path d="M0 0 C26.07 0 52.14 0 79 0 C79 23.76 79 47.52 79 72 C78.67 72 78.34 72 78 72 C76.68 66.06 75.36 60.12 74 54 C73.34 54 72.68 54 72 54 C71.38125 52.9275 70.7625 51.855 70.125 50.75 C69.75632812 50.11191406 69.38765625 49.47382812 69.0078125 48.81640625 C68 47 68 47 67 44.6875 C65.69146714 42.4793508 64.28380256 42.1336565 62 41 C60.77461411 40.06356973 59.56681016 39.10380579 58.375 38.125 C49.70121171 31.49401045 40.29422982 29.94816339 29.6875 29.4375 C28.43356445 29.37272461 28.43356445 29.37272461 27.15429688 29.30664062 C25.10303065 29.20114693 23.0515352 29.10012685 21 29 C20.46890625 27.92621094 19.9378125 26.85242188 19.390625 25.74609375 C18.67719255 24.30984158 17.96364471 22.87364672 17.25 21.4375 C16.90195313 20.73302734 16.55390625 20.02855469 16.1953125 19.30273438 C14.47004838 15.83623146 12.69746636 12.43612335 10.734375 9.09765625 C9 6 9 6 9 4 C6.03 3.01 3.06 2.02 0 1 C0 0.67 0 0.34 0 0 Z " fill="#F6F6F6" transform="translate(169,0)"/>
<path d="M0 0 C1.04510742 -0.01087646 1.04510742 -0.01087646 2.11132812 -0.02197266 C6.94950735 0.14983113 9.54419915 1.26854092 12.9375 4.6875 C15.03305583 8.87861165 14.49592023 14.13516121 13.9375 18.6875 C11.72186838 21.66111086 10.19830415 23.05709793 6.9375 24.6875 C-4.82189245 25.74283009 -4.82189245 25.74283009 -9.28515625 23.640625 C-12.06481028 21.31855529 -13.85143183 19.14894669 -14.37109375 15.55078125 C-14.59580279 11.1042661 -14.51217115 7.38962202 -12.0625 3.5625 C-8.63869743 0.07269642 -4.65014357 0.04725756 0 0 Z " fill="#0C1A2B" transform="translate(206.0625,49.3125)"/>
<path d="M0 0 C0.33 1.32 0.66 2.64 1 4 C0.01 4 -0.98 4 -2 4 C-4.55856751 5.08545288 -6.01388388 6.01388388 -8 8 C-10.125 7.625 -10.125 7.625 -12 7 C-10.3790787 5.82767315 -8.75313167 4.6622923 -7.125 3.5 C-6.22007813 2.8503125 -5.31515625 2.200625 -4.3828125 1.53125 C-2 0 -2 0 0 0 Z " fill="#C6CBD0" transform="translate(104,73)"/>
<path d="M0 0 C-0.66 1.65 -1.32 3.3 -2 5 C-4.5 3.625 -4.5 3.625 -7 2 C-7 1.34 -7 0.68 -7 0 C-3.98968256 -0.93423645 -3.13349732 -1.04449911 0 0 Z " fill="#CDD1D5" transform="translate(101,154)"/>
</svg>
